:SAMPLES-PER-SECOND 30
:FRAME-RANGE 1-4244
:FULLY-SPECIFIED
:DEGREES
3847
root  29.6131 38.1494 -36.2387 14.7031 51.6034 13.1982
RightUpLeg  -31.2262 -3.3254 -1.78373
RightLeg  11.2063 11.5783 3.25977
RightFoot  15.9605 -1.33714 5.95848
RightToes  -3.31784e-009 0 -3.6325e-017
Spine  26.3916 -0.566532 10.3156
Spine1  2.36336 2.43427 -3.59283
HEad  -10.9342 -35.9941 8.18251
LeftShoulder1  1.2796 -0.392168 -26.7018
LeftArm  -4.89528 7.77649 -27.0171
LeftForeArm  24.5198 -47.4329 -10.4109
LeftHand  0.274061 -2.25576 -3.98676
RightShoulder  7.96703 11.2838 47.1694
RightArm  -13.749 1.38894 12.1452
RightForeArm  8.25541 -1.19879 13.9914
RightHand  0.285305 2.19059 4.19114
LeftUpLeg  -15.2702 -11.3001 -7.76465
LeftLeg  32.2655 -12.1479 -7.81843
LeftFoot  -18.2012 0.201517 1.53942
LeftToes  1.0277e-010 -6.71454e-011 3.04227e-011
3848
root  29.1721 38.1681 -36.7757 12.9781 46.782 12.168
RightUpLeg  -28.3567 -3.35209 -2.08898
RightLeg  4.44093 13.8479 3.35222
RightFoot  14.7042 -4.44191 19.4847
RightToes  -3.31784e-009 0 -3.6325e-017
Spine  24.7672 -0.880596 5.82052
Spine1  3.02077 1.38562 -3.77838
HEad  -8.45043 -31.2329 6.66687
LeftShoulder1  1.29138 -0.412964 -26.8327
LeftArm  -3.53306 7.06672 -27.3066
LeftForeArm  23.7653 -46.5894 -10.1346
LeftHand  0.260264 -2.34367 -3.72623
RightShoulder  7.37216 10.556 45.8786
RightArm  -12.8043 0.364023 12.2815
RightForeArm  8.07849 -1.75822 14.2192
RightHand  0.254044 1.7385 3.9905
LeftUpLeg  -14.7731 -6.8644 -8.59735
LeftLeg  30.3885 -10.3072 -6.1289
LeftFoot  -17.3641 0.260011 2.95964
LeftToes  1.0277e-010 -6.71454e-011 3.04227e-011
3849
root  28.7206 37.9853 -37.3395 11.6456 41.8732 11.2341
RightUpLeg  -27.0742 -4.18533 -2.50735
RightLeg  0.782324 14.0601 3.99958
RightFoot  8.44457 -6.27895 35.2817
RightToes  -3.31784e-009 0 -3.6325e-017
Spine  23.4248 -1.31229 1.93804
Spine1  2.90457 0.225546 -3.40968
HEad  -7.06571 -26.3092 5.80248
LeftShoulder1  1.3591 -0.601811 -26.9723
LeftArm  -1.65157 5.6558 -28.0815
LeftForeArm  22.6989 -44.1306 -9.30123
LeftHand  0.253546 -2.59654 -3.4891
RightShoulder  6.70093 9.74648 44.1883
RightArm  -13.1299 0.753282 12.1033
RightForeArm  9.38845 -1.67828 14.0268
RightHand  0.236265 1.92559 3.58882
LeftUpLeg  -16.3555 -2.83745 -8.75618
LeftLeg  32.0839 -9.55687 -6.05122
LeftFoot  -17.7219 0.229488 2.20812
LeftToes  1.0277e-010 -6.71454e-011 3.04227e-011
3850
root  28.1953 38.1137 -37.9005 9.75317 36.0611 9.64493
RightUpLeg  -27.1391 -4.76299 -1.33919
RightLeg  3.213 9.67466 5.17874
RightFoot  1.97135 -4.03235 33.7305
RightToes  -3.31784e-009 0 -3.6325e-017
Spine  22.4814 -1.24773 -0.494604
Spine1  3.53736 -0.285157 -2.95162
HEad  -6.44186 -21.3315 5.11513
LeftShoulder1  1.46564 -0.932204 -26.9102
LeftArm  0.832712 3.41459 -29.5701
LeftForeArm  21.5446 -40.9571 -8.31667
LeftHand  0.234325 -2.70808 -3.15582
RightShoulder  6.4803 9.74769 42.6467
RightArm  -14.1444 1.47682 11.4839
RightForeArm  9.75691 -0.694909 13.6857
RightHand  0.219564 2.10373 3.22865
LeftUpLeg  -16.6984 2.69453 -8.14554
LeftLeg  31.4131 -9.31559 -5.73663
LeftFoot  -16.8301 0.159951 1.22971
LeftToes  1.0277e-010 -6.71454e-011 3.04227e-011
3851
root  27.6846 38.3935 -38.4333 7.40625 29.1239 7.34747
RightUpLeg  -27.4613 -7.38788 2.31389
RightLeg  9.26328 5.48405 3.83928
RightFoot  -2.79724 -1.98058 25.8393
RightToes  -3.31784e-009 0 -3.6325e-017
Spine  22.2449 -1.08963 -1.19096
Spine1  3.50379 -0.240532 -3.22906
HEad  -5.35483 -15.9402 4.08906
LeftShoulder1  1.54152 -1.17157 -26.8422
LeftArm  3.40176 2.25378 -30.8251
LeftForeArm  20.4862 -38.9841 -7.77695
LeftHand  0.225945 -2.66184 -3.05675
RightShoulder  6.8156 10.8029 41.4586
RightArm  -14.7271 2.37711 10.6017
RightForeArm  9.76824 0.633968 13.5227
RightHand  0.190748 2.18656 2.74418
LeftUpLeg  -16.1048 7.16788 -6.64268
LeftLeg  29.4652 -7.18684 -4.02081
LeftFoot  -15.4762 0.107436 0.403869
LeftToes  1.0277e-010 -6.71454e-011 3.04227e-011
